<?xml version="1.0" standalone="no"?>
<!DOCTYPE svg PUBLIC "-//W3C//DTD SVG 1.0//EN" "http://www.w3.org/TR/2001/REC-SVG-20010904/DTD/svg10.dtd">
<svg xmlns="http://www.w3.org/2000/svg" xmlns:xlink="http://www.w3.org/1999/xlink" id="body_1" width="800" height="800">

<defs>
    <linearGradient transform="matrix(4.0022 0 0 4.0011 191.95 -349.736)"  id="1" x1="-23.235" y1="97.431" x2="-23.235" y2="61.386">
        <stop stop-color="#1A1A1A" offset="0%"/>
        <stop stop-color="#B3B3B3" offset="100%"/>
    </linearGradient>
</defs>

<g transform="matrix(1.4818767 0 0 1.4818767 -0 280.07468)">
	<g transform="matrix(4.00216 0 0 4.0011 0 0)">
        <path d="M134.032 35.268C 134.032 36.284473 133.62793 37.259254 132.9088 37.977634C 132.18967 38.696014 131.21446 39.09906 130.198 39.098L130.198 39.098L4.729 39.098C 2.6113772 39.10021 0.8927591 37.38562 0.8900001 35.267998L0.8900001 35.267998L0.8900001 4.725C 0.89275813 2.6065695 2.6105678 0.8905494 4.729 0.89L4.729 0.89L130.197 0.89C 131.21402 0.8900001 132.18936 1.2940757 132.9084 2.0133064C 133.62746 2.7325368 134.03127 3.7079873 134.031 4.725L134.031 4.725L134.03201 35.267998L134.032 35.268z" stroke="none" fill="#FFFFFF" fill-rule="nonzero" />
        <path d="M130.198 39.989L4.729 39.989C 2.1205955 39.988453 0.0049648285 37.8764 0 35.268L0 35.268L0 4.726C 0.0038590431 2.1163306 2.1193295 0.0022025108 4.729 0L4.729 0L130.197 0C 132.80623 0.0032992363 134.92105 2.1167858 134.92601 4.726L134.92601 4.726L134.92601 35.267998C 134.92801 37.871998 132.80301 39.989 130.19801 39.989L130.19801 39.989L130.198 39.989z" stroke="none" fill="#A6A6A6" fill-rule="nonzero" />
        <path d="M134.032 35.268C 134.032 36.284473 133.62793 37.259254 132.9088 37.977634C 132.18967 38.696014 131.21446 39.09906 130.198 39.098L130.198 39.098L4.729 39.098C 2.6113772 39.10021 0.8927591 37.38562 0.8900001 35.267998L0.8900001 35.267998L0.8900001 4.725C 0.89275813 2.6065695 2.6105678 0.8905494 4.729 0.89L4.729 0.89L130.197 0.89C 131.21402 0.8900001 132.18936 1.2940757 132.9084 2.0133064C 133.62746 2.7325368 134.03127 3.7079873 134.031 4.725L134.031 4.725L134.03201 35.267998L134.032 35.268z" stroke="none" fill="#000000" fill-rule="nonzero" />
        <path d="M30.128 19.784C 30.099 16.561 32.767 14.993 32.889 14.92C 31.378 12.717 29.036 12.416 28.213 12.392C 26.245998 12.185 24.338 13.569 23.335999 13.569C 22.314 13.569 20.770998 12.412001 19.107998 12.446C 16.967999 12.479 14.965998 13.718 13.867998 15.642C 11.601998 19.565 13.291998 25.33 15.462998 28.501C 16.548998 30.055 17.817999 31.788 19.478998 31.727C 21.103998 31.661 21.710999 30.692 23.671997 30.692C 25.614998 30.692 26.184998 31.727 27.878998 31.688C 29.622997 31.661 30.720997 30.128 31.768997 28.560999C 33.024 26.782 33.527996 25.028 33.547997 24.938C 33.507996 24.924 30.161997 23.646 30.127996 19.784L30.127996 19.784L30.128 19.784zM26.928 10.306C 27.802 9.212999 28.4 7.726 28.234 6.2169995C 26.969 6.273 25.387 7.0919995 24.476 8.160999C 23.67 9.103 22.95 10.646999 23.136 12.098999C 24.557 12.204999 26.015999 11.381999 26.928 10.305999z" stroke="none" fill="#FFFFFF" fill-rule="nonzero" />
        <path d="M130.198 0L62.993 0L89.316 39.989L130.198 39.989C 132.8069 39.9868 134.92204 37.873886 134.927 35.265L134.927 35.265L134.927 4.726C 134.92259 2.1165576 132.80745 0.0027503967 130.198 0z" stroke="none" fill="url(#1)" />
		<g>
            <path d="M53.665 31.504L51.394 31.504L50.15 27.595L45.826 27.595L44.641 31.504L42.43 31.504L46.715 18.196L49.361 18.196L53.665 31.503998L53.665 31.504zM49.775 25.955L48.65 22.48C 48.531002 22.125 48.307003 21.289 47.979 19.973L47.979 19.973L47.939 19.973C 47.807 20.539 47.596 21.375 47.307 22.48L47.307 22.48L46.201 25.955L49.775 25.955zM64.663 26.588C 64.663 28.22 64.22 29.509998 63.333 30.456999C 62.539 31.3 61.552002 31.720999 60.375 31.720999C 59.104 31.720999 58.19 31.268 57.635 30.359999L57.635 30.359999L57.635 35.394997L55.503 35.394997L55.503 25.062C 55.503 24.037 55.475998 22.986 55.424 21.908L55.424 21.908L57.299 21.908L57.418 23.429L57.458 23.429C 58.169 22.283 59.248 21.710001 60.696 21.710001C 61.828 21.710001 62.773 22.157001 63.529 23.052002C 64.284 23.949001 64.663 25.127003 64.663 26.588001zM62.491 26.665998C 62.491 25.731998 62.281002 24.961998 61.859 24.354998C 61.398003 23.723997 60.779 23.407997 60.003002 23.407997C 59.477 23.407997 58.999 23.583998 58.572002 23.930998C 58.144 24.280998 57.864002 24.737997 57.733 25.303997C 57.674522 25.51567 57.641293 25.733517 57.634003 25.952997L57.634003 25.952997L57.634003 27.553997C 57.634003 28.250998 57.848003 28.839996 58.276 29.321997C 58.704002 29.801996 59.260002 30.042997 59.944 30.042997C 60.747 30.042997 61.372 29.731997 61.819 29.114998C 62.267002 28.495998 62.491 27.679998 62.491 26.665998zM75.7 26.588C 75.7 28.22 75.256996 29.509998 74.369995 30.456999C 73.575 31.3 72.589 31.720999 71.410995 31.720999C 70.13999 31.720999 69.226 31.268 68.671 30.359999L68.671 30.359999L68.671 35.394997L66.539 35.394997L66.539 25.062C 66.539 24.037 66.512 22.986 66.46 21.908L66.46 21.908L68.335 21.908L68.454 23.429L68.494 23.429C 69.204 22.283 70.283005 21.710001 71.732 21.710001C 72.863 21.710001 73.808 22.157001 74.566 23.052002C 75.32 23.949001 75.700005 25.127003 75.700005 26.588001zM73.527 26.665998C 73.527 25.731998 73.316 24.961998 72.894 24.354998C 72.433 23.723997 71.815994 23.407997 71.04 23.407997C 70.514 23.407997 70.036 23.583998 69.607 23.930998C 69.179 24.280998 68.9 24.737997 68.769005 25.303997C 68.704 25.567997 68.66901 25.782997 68.66901 25.952997L68.66901 25.952997L68.66901 27.553997C 68.66901 28.250998 68.884 28.839996 69.310005 29.321997C 69.73801 29.800997 70.29401 30.042997 70.98 30.042997C 71.784004 30.042997 72.409004 29.731997 72.855 29.114998C 73.303 28.495998 73.527 27.679998 73.527 26.665998zM88.04 27.771C 88.04 28.904 87.644 29.825 86.857 30.536C 85.991005 31.312 84.782005 31.701 83.232 31.701C 81.8 31.701 80.652 31.425001 79.786 30.872L79.786 30.872L80.279 29.095C 81.214 29.649 82.241 29.925 83.359 29.925C 84.163 29.925 84.788 29.743 85.234 29.382C 85.681 29.02 85.907 28.536 85.907 27.932C 85.907 27.390999 85.72 26.938 85.353 26.568998C 84.98399 26.200998 84.374 25.857998 83.517 25.543C 81.187 24.674 80.020996 23.403 80.020996 21.730999C 80.020996 20.639 80.433 19.744999 81.255 19.046C 82.076996 18.348 83.167 17.998999 84.522995 17.998999C 85.73399 17.998999 86.743 18.21 87.54399 18.630999L87.54399 18.630999L87.00899 20.369C 86.25499 19.960999 85.403984 19.757 84.45199 19.757C 83.69999 19.757 83.109985 19.942 82.68799 20.31C 82.332985 20.639 82.152985 21.039999 82.152985 21.515999C 82.152985 22.040998 82.35799 22.477 82.76598 22.818998C 83.11998 23.133999 83.76598 23.476997 84.69998 23.844997C 85.845985 24.306997 86.68798 24.844997 87.22698 25.462997C 87.76998 26.080997 88.039986 26.851997 88.039986 27.770998zM95.107 23.508L92.757 23.508L92.757 28.167C 92.757 29.352 93.171005 29.943 94.00101 29.943C 94.382 29.943 94.698006 29.911001 94.948006 29.844L94.948006 29.844L95.007 31.463C 94.587006 31.619999 94.034004 31.699 93.34901 31.699C 92.507 31.699 91.84901 31.442 91.37401 30.928C 90.90101 30.414 90.66301 29.553 90.66301 28.341L90.66301 28.341L90.66301 23.504L89.26301 23.504L89.26301 21.904L90.66301 21.904L90.66301 20.147L92.75701 19.515L92.75701 21.904L95.10701 21.904L95.10701 23.508zM105.689 26.627C 105.689 28.102001 105.267006 29.313002 104.425 30.26C 103.54401 31.235 102.372 31.721 100.911 31.721C 99.501 31.721 98.380005 31.254002 97.54401 30.321001C 96.70801 29.386002 96.29001 28.208 96.29001 26.787C 96.29001 25.300001 96.72201 24.082 97.58301 23.135C 98.44601 22.187 99.60801 21.713 101.06901 21.713C 102.477005 21.713 103.60801 22.181 104.464005 23.115C 105.282005 24.021 105.689 25.191 105.689 26.626999zM103.479004 26.676C 103.479004 25.797 103.289 25.043001 102.908005 24.412C 102.461006 23.650002 101.82101 23.269001 100.992004 23.269001C 100.13801 23.269001 99.483 23.650002 99.037 24.412C 98.655 25.043001 98.465004 25.810001 98.465004 26.716C 98.465004 27.595999 98.65501 28.352 99.037 28.980999C 99.498 29.742998 100.141 30.123999 100.974 30.123999C 101.789 30.123999 102.428 29.734999 102.89 28.961998C 103.282 28.315998 103.479 27.556997 103.479 26.675999zM112.622 23.783C 112.40026 23.74297 112.17533 23.72322 111.950005 23.724C 111.200005 23.724 110.62 24.006 110.212006 24.574001C 109.85801 25.074001 109.68001 25.706001 109.68001 26.469002L109.68001 26.469002L109.68001 31.504002L107.548004 31.504002L107.548004 24.93C 107.549904 23.922577 107.529236 22.915497 107.48601 21.909L107.48601 21.909L109.34301 21.909L109.42101 23.745L109.48001 23.745C 109.70601 23.114 110.06001 22.605001 110.54601 22.224C 110.99087 21.891079 111.53138 21.71079 112.08701 21.710001C 112.28401 21.710001 112.46201 21.724 112.62001 21.749L112.62001 21.749L112.62201 23.783zM122.157 26.252C 122.1624 26.5761 122.13628 26.899958 122.078995 27.219002L122.078995 27.219002L115.683 27.219002C 115.707 28.167002 116.017 28.893002 116.611 29.393002C 117.15 29.839 117.847 30.063002 118.703 30.063002C 119.65 30.063002 120.514 29.913002 121.291 29.610003L121.291 29.610003L121.625 31.089003C 120.717 31.485003 119.645 31.682003 118.408 31.682003C 116.92 31.682003 115.752 31.244003 114.902 30.370003C 114.054 29.495003 113.629 28.319002 113.629 26.846003C 113.629 25.400003 114.023994 24.195004 114.814995 23.234003C 115.643 22.208004 116.76199 21.695004 118.17 21.695004C 119.553 21.695004 120.6 22.208004 121.311 23.234003C 121.874 24.047003 122.157 25.055002 122.157 26.252003zM120.124 25.699001C 120.139 25.066002 119.999 24.521002 119.71 24.060001C 119.340996 23.466002 118.773 23.170002 118.012 23.170002C 117.315 23.170002 116.747 23.459002 116.315 24.039001C 115.96 24.500002 115.749 25.054 115.684006 25.697002L115.684006 25.697002L120.12401 25.699003z" stroke="none" fill="#FFFFFF" fill-rule="nonzero" />
		</g>
		<g>
            <path d="M45.211 13.491C 44.618 13.491 44.105 13.462 43.677998 13.413L43.677998 13.413L43.677998 6.979C 44.27521 6.8867435 44.878704 6.8412733 45.482998 6.843C 47.927998 6.843 49.053997 8.046 49.053997 10.007C 49.053997 12.269 47.723995 13.491 45.211 13.491zM45.569 7.668C 45.239 7.668 44.958 7.688 44.725 7.736L44.725 7.736L44.725 12.627C 44.850998 12.647 45.093 12.656 45.433 12.656C 47.035 12.656 47.947 11.744 47.947 10.036C 47.947 8.5130005 47.121998 7.668 45.569 7.668zM52.563 13.54C 51.185 13.54 50.292 12.511 50.292 11.114C 50.292 9.658 51.204 8.620001 52.641 8.620001C 53.999 8.620001 54.912 9.6 54.912 11.037001C 54.912 12.511001 53.971 13.540001 52.563 13.540001zM52.603 9.386C 51.846 9.386 51.361 10.094 51.361 11.084C 51.361 12.054999 51.856 12.763 52.593 12.763C 53.329998 12.763 53.824997 12.006 53.824997 11.063999C 53.824997 10.103999 53.339996 9.386 52.602997 9.386zM62.77 8.717L61.295002 13.433001L60.334003 13.433001L59.723003 11.385C 59.57108 10.884041 59.444588 10.375736 59.344 9.862L59.344 9.862L59.324 9.862C 59.247 10.376 59.101 10.891001 58.946003 11.385L58.946003 11.385L58.296 13.433001L57.325 13.433001L55.937 8.717001L57.014 8.717001L57.548 10.959002C 57.674 11.493002 57.78 11.997002 57.868 12.4730015L57.868 12.4730015L57.888 12.4730015C 57.965 12.076001 58.091 11.580002 58.276 10.969002L58.276 10.969002L58.946 8.718002L59.8 8.718002L60.440998 10.921002C 60.595997 11.455003 60.721996 11.979002 60.82 12.474003L60.82 12.474003L60.848 12.474003C 60.916 11.989003 61.023 11.474003 61.168 10.921003L61.168 10.921003L61.741 8.718003L62.77 8.717003zM68.2 13.433L67.152 13.433L67.152 10.724999C 67.152 9.891 66.832 9.473 66.201004 9.473C 65.58 9.473 65.15301 10.007 65.15301 10.627999L65.15301 10.627999L65.15301 13.433L64.10501 13.433L64.10501 10.065C 64.10501 9.648 64.09501 9.200999 64.06601 8.716L64.06601 8.716L64.98801 8.716L65.03701 9.443999L65.06601 9.443999C 65.34801 8.94 65.920006 8.619999 66.56101 8.619999C 67.55101 8.619999 68.20101 9.376999 68.20101 10.608999L68.20101 10.608999L68.20001 13.432999zM71.09 13.433L70.04099 13.433L70.04099 6.5529995L71.09 6.5529995L71.09 13.433zM74.911 13.54C 73.534004 13.54 72.64 12.511 72.64 11.114C 72.64 9.658 73.552 8.620001 74.988 8.620001C 76.347 8.620001 77.259 9.6 77.259 11.037001C 77.26 12.511001 76.318 13.540001 74.911 13.540001zM74.950005 9.386C 74.193 9.386 73.70801 10.094 73.70801 11.084C 73.70801 12.054999 74.20401 12.763 74.93901 12.763C 75.67701 12.763 76.17101 12.006 76.17101 11.063999C 76.17201 10.103999 75.68801 9.386 74.95001 9.386zM81.391 13.433L81.315 12.889999L81.287 12.889999C 80.967 13.327 80.5 13.539999 79.908005 13.539999C 79.063 13.539999 78.463005 12.947999 78.463005 12.1519985C 78.463005 10.987999 79.47201 10.385999 81.219 10.385999L81.219 10.385999L81.219 10.298999C 81.219 9.677999 80.89 9.366999 80.240005 9.366999C 79.77501 9.366999 79.367004 9.483998 79.008 9.716999L79.008 9.716999L78.795006 9.027999C 79.231 8.755999 79.77501 8.619999 80.41401 8.619999C 81.64601 8.619999 82.268005 9.269999 82.268005 10.570999L82.268005 10.570999L82.268005 12.307999C 82.268005 12.7839985 82.28901 13.152999 82.336006 13.433999L82.336006 13.433999L81.39101 13.432999zM81.247 11.084C 80.083 11.084 79.499 11.365999 79.499 12.035C 79.499 12.53 79.8 12.771999 80.218 12.771999C 80.751 12.771999 81.247 12.365 81.247 11.811999L81.247 11.811999L81.247 11.084zM87.357 13.433L87.308 12.676L87.279 12.676C 86.978 13.247999 86.472 13.54 85.765 13.54C 84.628 13.54 83.786 12.54 83.786 11.132999C 83.786 9.657999 84.659004 8.6189995 85.851006 8.6189995C 86.482 8.6189995 86.92901 8.832 87.18101 9.259999L87.18101 9.259999L87.20201 9.259999L87.20201 6.553L88.251015 6.553L88.251015 12.162001C 88.251015 12.618001 88.26202 13.045001 88.290016 13.433001L88.290016 13.433001L87.35702 13.433001zM87.202 10.657999C 87.202 9.997999 86.76501 9.434999 86.09801 9.434999C 85.32101 9.434999 84.84601 10.124 84.84601 11.094C 84.84601 12.045 85.339005 12.696 86.07701 12.696C 86.73601 12.696 87.20201 12.123 87.20201 11.444L87.20201 11.444L87.20201 10.658zM94.902 13.54C 93.525 13.54 92.632 12.511 92.632 11.114C 92.632 9.658 93.54401 8.620001 94.98 8.620001C 96.339005 8.620001 97.25101 9.6 97.25101 11.037001C 97.25201 12.511001 96.311005 13.540001 94.90201 13.540001zM94.941 9.386C 94.185005 9.386 93.700005 10.094 93.700005 11.084C 93.700005 12.054999 94.19501 12.763 94.93101 12.763C 95.66901 12.763 96.16301 12.006 96.16301 11.063999C 96.16501 10.103999 95.68001 9.386 94.94101 9.386zM102.887 13.433L101.838 13.433L101.838 10.724999C 101.838 9.891 101.518 9.473 100.887 9.473C 100.266 9.473 99.840004 10.007 99.840004 10.627999L99.840004 10.627999L99.840004 13.433L98.791 13.433L98.791 10.065C 98.791 9.648 98.781 9.200999 98.752 8.716L98.752 8.716L99.673996 8.716L99.723 9.443999L99.752 9.443999C 100.033 8.94 100.605995 8.6189995 101.246 8.6189995C 102.236 8.6189995 102.887 9.375999 102.887 10.608L102.887 10.608L102.887 13.433zM109.938 9.503L108.785 9.503L108.785 11.793C 108.785 12.376 108.98701 12.667 109.395004 12.667C 109.58 12.667 109.735 12.646999 109.86 12.618L109.86 12.618L109.889 13.414C 109.686 13.492 109.414 13.530999 109.076 13.530999C 108.25 13.530999 107.756 13.074999 107.756 11.881L107.756 11.881L107.756 9.503L107.06799 9.503L107.06799 8.717L107.756 8.717L107.756 7.853L108.784996 7.5420003L108.784996 8.716001L109.937996 8.716001L109.937996 9.503zM115.486 13.433L114.439 13.433L114.439 10.745C 114.439 9.901 114.12 9.474 113.48801 9.474C 112.94501 9.474 112.439 9.843 112.439 10.59L112.439 10.59L112.439 13.433001L111.392006 13.433001L111.392006 6.5530005L112.439 6.5530005L112.439 9.386001L112.46001 9.386001C 112.79001 8.872001 113.268005 8.619 113.878006 8.619C 114.87601 8.619 115.48601 9.395 115.48601 10.628L115.48601 10.628L115.48601 13.433001zM121.17 11.327L118.025 11.327C 118.045 12.219999 118.636 12.724 119.511 12.724C 119.976 12.724 120.404 12.646 120.782005 12.501L120.782005 12.501L120.94501 13.229C 120.49901 13.423 119.97401 13.52 119.36301 13.52C 117.88801 13.52 117.01501 12.588 117.01501 11.143001C 117.01501 9.6970005 117.909004 8.610001 119.24501 8.610001C 120.45001 8.610001 121.20601 9.503 121.20601 10.852001C 121.21278 11.0112 121.2007 11.170643 121.170006 11.327002zM120.209 10.58C 120.209 9.852 119.842 9.338 119.172 9.338C 118.57 9.338 118.093994 9.862 118.02599 10.58L118.02599 10.58L120.20899 10.58z" stroke="none" fill="#FFFFFF" fill-rule="nonzero" />
		</g>
	</g>
</g>
</svg>