<?xml version="1.0" standalone="no"?>
<!DOCTYPE svg PUBLIC "-//W3C//DTD SVG 1.0//EN" "http://www.w3.org/TR/2001/REC-SVG-20010904/DTD/svg10.dtd">
<svg xmlns="http://www.w3.org/2000/svg" xmlns:xlink="http://www.w3.org/1999/xlink" id="body_1" width="1200" height="800">

<defs>
    <linearGradient transform="matrix(0.72167 0 0 1.38567 0 0)"  id="1" x1="243.89" y1="380.413" x2="103.763" y2="110.924">
        <stop stop-color="#00A0FF" offset="0%"/>
        <stop stop-color="#00E3FF" offset="100%"/>
    </linearGradient>
    <linearGradient transform="matrix(1.1083 0 0 0.90228 0 0)"  id="247" x1="219.82" y1="104.456" x2="-265.185" y2="104.456">
        <stop stop-color="#FFE000" offset="0%"/>
        <stop stop-color="#FF9C00" offset="100%"/>
    </linearGradient>
    <linearGradient transform="matrix(1.13894 0 0 0.878 0 0)"  id="495" x1="279.815" y1="222.803" x2="-162.26" y2="-116.045">
        <stop stop-color="#FF3A44" offset="0%"/>
        <stop stop-color="#C31162" offset="100%"/>
    </linearGradient>
    <linearGradient transform="matrix(1.13896 0 0 0.878 0 0)"  id="743" x1="-62.115" y1="361.335" x2="134.984" y2="210.03">
        <stop stop-color="#32A071" offset="0%"/>
        <stop stop-color="#00F076" offset="100%"/>
    </linearGradient>
    <linearGradient transform="matrix(1.38147 0 0 0.72387 0 0)"  id="989" x1="231.994" y1="187.683" x2="-133.972" y2="-4.388">
        <stop stop-color="#CC2E36" offset="0%"/>
        <stop stop-color="#9C0E4E" offset="100%"/>
    </linearGradient>
    <linearGradient transform="matrix(0.58803 0 0 1.7006 0 0)"  id="1238" x1="62.549" y1="311.274" x2="-13.255" y2="91.69">
        <stop stop-color="#008DE0" offset="0%"/>
        <stop stop-color="#00C7E0" offset="100%"/>
    </linearGradient>
    <linearGradient transform="matrix(1.19442 0 0 0.83723 0 0)"  id="1484" x1="127.112" y1="112.451" x2="-322.924" y2="112.451">
        <stop stop-color="#E0C500" offset="0%"/>
        <stop stop-color="#E08900" offset="100%"/>
    </linearGradient>
    <linearGradient transform="matrix(1.1944 0 0 0.83724 0 0)"  id="1735" x1="127.114" y1="0.829" x2="-322.928" y2="0.829">
        <stop stop-color="#FFE840" offset="0%"/>
        <stop stop-color="#FFB540" offset="100%"/>
    </linearGradient>
    <linearGradient transform="matrix(0.58722 0 0 1.70294 0 0)"  id="1981" x1="62.249" y1="4.878" x2="-13.13" y2="-204.589">
        <stop stop-color="#40B8FF" offset="0%"/>
        <stop stop-color="#40EAFF" offset="100%"/>
    </linearGradient>
    <linearGradient transform="matrix(1.38144 0 0 0.72388 0 0)"  id="2228" x1="-49.894" y1="230.7" x2="113.528" y2="144.927">
        <stop stop-color="#65B895" offset="0%"/>
        <stop stop-color="#40F498" offset="100%"/>
    </linearGradient>
</defs>

<g transform="matrix(0.3077954 0 0 0.3077954 138.20013 262.8707)">
	<g>
        <path d="M2887.921 890.028L111.074 890.028C 49.984 890.028 0 839.964 0 778.775L0 778.775L0 111.254C 0 50.064 49.983 0 111.074 0L111.074 0L2887.92 0C 2949.01 0 2998.994 50.064 2998.994 111.254L2998.994 111.254L2998.994 778.77405C 2998.994 839.96405 2949.011 890.0281 2887.92 890.0281" stroke="none" fill="#000000" fill-rule="nonzero" />
        <path d="M2887.921 0L111.074 0C 49.984 0 0 50.064 0 111.254L0 111.254L0 778.77405C 0 839.96405 49.983 890.0281 111.074 890.0281L111.074 890.0281L2887.92 890.0281C 2949.01 890.0281 2998.994 839.96405 2998.994 778.7751L2998.994 778.7751L2998.994 111.254C 2998.995 50.064 2949.012 0 2887.92 0M2887.92 17.8C 2939.3699 17.8 2981.222 59.73 2981.222 111.254L2981.222 111.254L2981.222 778.77405C 2981.222 830.30804 2939.369 872.23706 2887.92 872.23706L2887.92 872.23706L111.074 872.23706C 59.634 872.23706 17.771996 830.30707 17.771996 778.7751L17.771996 778.7751L17.771996 111.254C 17.771996 59.73 59.632996 17.800995 111.074 17.800995L111.074 17.800995L2887.92 17.800995" stroke="none" fill="#A6A6A6" fill-rule="nonzero" />
        <path d="M1053.39 227.923C 1053.39 246.565 1047.878 261.41 1036.84 272.484C 1024.301 285.652 1007.95996 292.241 987.871 292.241C 968.633 292.241 952.276 285.566 938.82495 272.197C 925.35 258.83798 918.62494 242.27199 918.62494 222.50699C 918.62494 202.73299 925.3499 186.17699 938.82495 172.80699C 952.27594 159.44899 968.63293 152.76399 987.871 152.76399C 997.417 152.76399 1006.55597 154.63399 1015.233 158.36299C 1023.91 162.101 1030.87 167.06299 1036.077 173.277L1036.077 173.277L1024.3611 185.019C 1015.5371 174.459 1003.38806 169.183 987.8711 169.183C 973.84106 169.183 961.7091 174.121 951.4701 184.00299C 941.22906 193.89499 936.1101 206.72299 936.1101 222.50699C 936.1101 238.29199 941.2291 251.11899 951.4701 261.012C 961.7091 270.89398 973.8401 275.831 987.8711 275.831C 1002.75507 275.831 1015.16406 270.867 1025.0991 260.925C 1031.5481 254.44798 1035.2771 245.44499 1036.2751 233.88399L1036.2751 233.88399L987.87 233.88399L987.87 217.84799L1052.46 217.84799C 1053.084 221.33499 1053.388 224.681 1053.388 227.92299" stroke="none" fill="#FFFFFF" fill-rule="nonzero" />
        <path d="M1053.39 227.923L1051.168 227.923C 1051.15 246.14 1045.838 260.289 1035.268 270.911L1035.268 270.911L1035.245 270.92902L1035.235 270.94702C 1023.095 283.661 1007.49 289.989 987.87 290.01602C 969.146 289.989 953.473 283.592 940.386 270.62402C 927.328 257.63004 920.871 241.76703 920.846 222.50702C 920.87103 203.23802 927.328 187.38402 940.386 174.39902C 953.47296 161.42201 969.146 155.01602 987.87 154.98901C 997.13 154.98901 1005.947 156.79901 1014.355 160.40501C 1022.772 164.03902 1029.421 168.80101 1034.375 174.71301L1034.375 174.71301L1036.076 173.27701L1034.5061 171.70401L1022.7901 183.45401L1024.3601 185.01901L1026.0712 183.59502C 1016.8362 172.51202 1003.87415 166.92502 987.87115 166.95802C 973.3201 166.94002 960.52014 172.14803 949.9321 182.40503C 939.2421 192.69502 933.87115 206.24503 933.88916 222.50703C 933.87115 238.77003 939.2422 252.31903 949.9321 262.61005C 960.52014 272.86703 973.3201 278.07404 987.8701 278.05606C 1003.24713 278.08307 1016.3521 272.85806 1026.6691 262.49805C 1033.5591 255.57805 1037.4651 245.99304 1038.489 234.07504L1038.489 234.07504L1038.696 231.65904L990.09204 231.65904L990.09204 220.07304L1052.4601 220.07304L1052.4601 217.84804L1050.2721 218.23904C 1050.8801 221.61304 1051.1671 224.81905 1051.1671 227.92305L1051.1671 227.92305L1055.6101 227.92305C 1055.6101 224.54105 1055.2971 221.06505 1054.6461 217.45004L1054.6461 217.45004L1054.3171 215.62305L985.65 215.62305L985.65 236.10904L1036.275 236.10904L1036.275 233.88403L1034.063 233.69304C 1033.083 244.88904 1029.524 253.32004 1023.528 259.35303C 1013.98303 268.87802 1002.268 273.57904 987.87103 273.60602C 974.361 273.588 962.898 268.92902 953.01404 259.41202C 943.226 249.92902 938.35706 237.82202 938.33203 222.50702C 938.35706 207.19202 943.226 195.08502 953.01404 185.60202C 962.898 176.08502 974.36005 171.42603 987.87103 171.40802C 1002.893 171.44402 1014.236 176.41502 1022.66205 186.45403L1022.66205 186.45403L1024.224 188.31403L1037.648 174.85103L1039.0879 173.40903L1037.7769 171.85103C 1032.3188 165.33403 1025.0469 160.16103 1016.1089 156.32103C 1007.1539 152.46902 997.70386 150.53903 987.8709 150.53903C 968.1219 150.52203 951.0789 157.47504 937.2549 171.23503C 923.3799 184.96803 916.38586 202.23003 916.4049 222.50703C 916.3859 242.77504 923.3799 260.04703 937.2639 273.78802C 951.0789 287.53903 968.1219 294.484 987.8709 294.46603C 1008.4379 294.48404 1025.4989 287.64203 1038.4459 274.02203L1038.4459 274.02203L1036.8389 272.48404L1038.4099 274.05804C 1049.9169 262.54105 1055.6259 246.98305 1055.611 227.92305L1055.611 227.92305L1053.3889 227.92305zM1155.7839 172.15605L1095.084 172.15605L1095.084 214.48605L1149.824 214.48605L1149.824 230.52805L1095.084 230.52805L1095.084 272.85803L1155.7839 272.85803L1155.7839 289.25903L1077.9719 289.25903L1077.9719 155.755L1155.7839 155.755L1155.7839 172.156" stroke="none" fill="#FFFFFF" fill-rule="nonzero" />
        <path d="M1155.784 172.156L1155.784 169.931L1092.863 169.931L1092.863 216.711L1147.602 216.711L1147.602 228.297L1092.862 228.303L1092.862 275.083L1153.562 275.083L1153.562 287.034L1080.194 287.034L1080.194 157.98L1153.562 157.98L1153.562 172.15599L1155.784 172.15599L1155.784 169.93098L1155.784 172.15599L1158.005 172.15599L1158.005 153.53L1075.751 153.53L1075.751 291.484L1158.005 291.484L1158.005 270.633L1097.305 270.633L1097.305 232.75299L1152.045 232.75299L1152.045 212.26099L1097.305 212.26099L1097.305 174.38098L1158.005 174.38098L1158.005 172.15598L1155.784 172.15598zM1228.008 289.25998L1210.8701 289.25998L1210.8701 172.155L1173.6421 172.155L1173.6421 155.754L1265.2361 155.754L1265.2361 172.155L1228.008 172.155L1228.008 289.258" stroke="none" fill="#FFFFFF" fill-rule="nonzero" />
        <path d="M1228.008 289.26L1228.008 287.034L1213.0911 287.034L1213.0911 169.931L1175.864 169.931L1175.864 157.981L1263.014 157.981L1263.014 169.931L1225.787 169.931L1225.787 289.259L1228.0079 289.259L1228.0079 287.034L1228.0079 289.259L1230.23 289.259L1230.23 174.381L1267.457 174.381L1267.457 153.53L1171.421 153.53L1171.421 174.38L1208.6481 174.38L1208.6481 291.483L1230.2301 291.483L1230.2301 289.258L1228.008 289.258zM1331.5071 289.26L1331.5071 155.754L1348.628 155.754L1348.628 289.258L1331.5071 289.258" stroke="none" fill="#FFFFFF" fill-rule="nonzero" />
        <path d="M1331.507 289.26L1333.729 289.26L1333.729 157.98L1346.406 157.98L1346.406 287.034L1331.507 287.034L1331.507 289.259L1333.729 289.259L1331.507 289.259L1331.507 291.484L1350.849 291.484L1350.849 153.53L1329.286 153.53L1329.286 291.484L1331.507 291.484L1331.507 289.259zM1424.6 289.26L1407.4619 289.26L1407.4619 172.155L1370.236 172.155L1370.236 155.754L1461.828 155.754L1461.828 172.155L1424.6 172.155L1424.6 289.258" stroke="none" fill="#FFFFFF" fill-rule="nonzero" />
        <path d="M1424.6 289.26L1424.6 287.034L1409.683 287.034L1409.683 169.931L1372.458 169.931L1372.458 157.981L1459.606 157.981L1459.606 169.931L1422.3789 169.931L1422.3789 289.259L1424.5999 289.259L1424.5999 287.034L1424.5999 289.259L1426.8219 289.259L1426.8219 174.381L1464.049 174.381L1464.049 153.53L1368.0149 153.53L1368.0149 174.38L1405.2399 174.38L1405.2399 291.483L1426.8219 291.483L1426.8219 289.258L1424.5999 289.258L1424.6 289.26zM1550.132 260.832C 1559.997 270.835 1572.069 275.832 1586.344 275.832C 1600.619 275.832 1612.697 270.835 1622.547 260.832C 1632.422 250.828 1637.369 238.04001 1637.369 222.509C 1637.369 206.979 1632.422 194.19101 1622.547 184.18701C 1612.697 174.18301 1600.619 169.18501 1586.344 169.18501C 1572.069 169.18501 1559.997 174.18301 1550.132 184.18701C 1540.282 194.19101 1535.3369 206.97801 1535.3369 222.509C 1535.3369 238.04001 1540.2819 250.828 1550.132 260.832zM1635.216 272.008C 1622.1119 285.505 1605.8159 292.24298 1586.344 292.24298C 1566.853 292.24298 1550.564 285.50497 1537.489 272.008C 1524.376 258.526 1517.8511 242.023 1517.8511 222.509C 1517.8511 202.995 1524.3761 186.489 1537.489 173.01001C 1550.5651 159.51001 1566.853 152.766 1586.344 152.766C 1605.713 152.766 1621.965 159.546 1635.13 173.097C 1648.276 186.647 1654.854 203.117 1654.854 222.509C 1654.854 242.02301 1648.292 258.526 1635.2161 272.008z" stroke="none" fill="#FFFFFF" fill-rule="nonzero" />
        <path d="M1550.132 260.83L1548.552 262.39398C 1558.784 272.79797 1571.549 278.08298 1586.344 278.05597C 1601.13 278.08298 1613.912 272.79797 1624.127 262.39398C 1634.4259 251.97998 1639.606 238.50798 1639.59 222.50699C 1639.605 206.50699 1634.426 193.034 1624.127 182.62C 1613.912 172.21599 1601.13 166.93199 1586.344 166.958C 1571.549 166.93199 1558.7839 172.21599 1548.552 182.62C 1538.278 193.034 1533.088 206.50699 1533.115 222.50699C 1533.088 238.50699 1538.278 251.97998 1548.552 262.39398L1548.552 262.39398L1550.132 260.83L1551.7119 259.26498C 1542.288 249.65999 1537.5759 237.57799 1537.5579 222.50699C 1537.5758 207.43698 1542.2878 195.35498 1551.7108 185.749C 1561.2208 176.146 1572.5798 171.435 1586.3439 171.409C 1600.0969 171.435 1611.4819 176.146 1620.9679 185.749C 1630.4089 195.355 1635.1208 207.437 1635.138 222.50699C 1635.121 237.577 1630.4089 249.65999 1620.9679 259.26498C 1611.4819 268.869 1600.0979 273.57898 1586.3439 273.60498C 1572.5798 273.57898 1561.2208 268.869 1551.7108 259.26498L1551.7108 259.26498L1550.132 260.83zM1635.216 272.00598L1633.6279 270.46C 1620.8899 283.53198 1605.313 289.99 1586.3439 290.016C 1567.3658 289.98898 1551.7888 283.53198 1539.0748 270.46L1539.0748 270.46L1539.0148 270.38998L1539.0748 270.46C 1526.3638 257.343 1520.0908 241.525 1520.0729 222.50699C 1520.0908 203.48898 1526.3639 187.67099 1539.0748 174.555C 1551.7888 161.482 1567.3649 155.01599 1586.3439 154.98999C 1605.1909 155.01599 1620.7319 161.50899 1633.5409 174.65C 1646.2969 187.827 1652.6058 203.62 1652.6329 222.50699C 1652.606 241.525 1646.315 257.343 1633.6279 270.46L1633.6279 270.46L1635.216 272.00598L1636.814 273.55197C 1650.2799 259.69897 1657.091 242.51497 1657.0759 222.50697C 1657.0919 202.61298 1650.2539 185.46397 1636.725 171.54898C 1623.189 157.57898 1606.233 150.51498 1586.344 150.53899C 1566.351 150.51498 1549.343 157.54599 1535.892 171.46199L1535.892 171.46199L1535.892 171.452C 1522.3989 185.315 1515.6119 202.499 1515.63 222.50699C 1515.612 242.51498 1522.399 259.69897 1535.892 273.56097L1535.892 273.56097L1535.952 273.62396L1535.892 273.55197C 1549.343 287.46796 1566.351 294.48398 1586.344 294.46597C 1606.328 294.48398 1623.3359 287.468 1636.814 273.55197L1636.814 273.55197L1635.216 272.00598zM1678.8899 289.25998L1678.8899 155.754L1699.7349 155.754L1764.5128 259.611L1765.2509 259.611L1764.5128 233.883L1764.5128 155.754L1781.6519 155.754L1781.6519 289.258L1763.7749 289.258L1696.0029 180.368L1695.2649 180.368L1696.0029 206.105L1696.0029 289.258L1678.8909 289.258" stroke="none" fill="#FFFFFF" fill-rule="nonzero" />
        <path d="M1678.89 289.26L1681.112 289.26L1681.112 157.98L1698.5021 157.98L1763.28 261.837L1767.532 261.837L1766.734 233.85101L1766.734 157.98102L1779.43 157.98102L1779.43 287.034L1765.008 287.034L1697.2361 178.144L1692.9841 178.144L1693.7811 206.142L1693.7811 287.034L1678.8911 287.034L1678.8911 289.259L1681.112 289.259L1678.8911 289.259L1678.8911 291.484L1698.2241 291.484L1698.2241 206.07101L1697.487 180.30902L1695.265 180.36902L1695.265 182.59402L1696.003 182.59402L1696.003 180.36902L1694.119 181.55202L1762.543 291.484L1783.8729 291.484L1783.8729 153.53L1762.2919 153.53L1762.2919 233.91L1763.0289 259.672L1765.251 259.612L1765.251 257.387L1764.513 257.387L1764.513 259.612L1766.397 258.431L1700.965 153.53L1676.6699 153.53L1676.6699 291.484L1678.892 291.484L1678.892 289.259L1678.89 289.26zM2375.558 667.522L2417.01 667.522L2417.01 389.36197L2375.5571 389.36197zM2748.9211 489.56195L2701.404 610.15796L2699.982 610.15796L2650.665 489.56097L2606.013 489.56097L2679.9658 658.11694L2637.8027 751.87494L2681.0547 751.87494L2795.0166 489.56094zM2513.8442 635.92896C 2500.2493 635.92896 2481.3223 629.131 2481.3223 612.30493C 2481.3223 590.83496 2504.9143 582.6049 2525.2622 582.6049C 2543.5022 582.6049 2552.0542 586.5409 2563.1392 591.9149C 2559.9182 617.6759 2537.769 635.9289 2513.8442 635.9289zM2518.8433 483.47595C 2488.8303 483.47595 2457.7522 496.72095 2444.8901 526.066L2444.8901 526.066L2481.6772 541.44995C 2489.5413 526.066 2504.1812 521.0499 2519.5542 521.0499C 2540.9912 521.0499 2562.7842 533.93994 2563.1392 556.8429L2563.1392 556.8429L2563.1392 559.7029C 2555.6301 555.4079 2539.569 548.9679 2519.9092 548.9679C 2480.256 548.9679 2439.8691 570.7919 2439.8691 611.5909C 2439.8691 648.8099 2472.392 672.7889 2508.8242 672.7889C 2536.704 672.7889 2552.0542 660.26385 2561.7173 645.5939L2561.7173 645.5939L2563.1394 645.5939L2563.1394 667.0619L2603.1484 667.0619L2603.1484 560.413C 2603.1484 511.03702 2566.3604 483.47504 2518.8435 483.47504zM2262.6624 523.42194L2203.7043 523.42194L2203.7043 428.07593L2262.6624 428.07593C 2293.6523 428.07593 2311.2463 453.77594 2311.2463 475.74792C 2311.2463 497.30392 2293.6514 523.42194 2262.6624 523.42194zM2261.5964 389.36194L2162.2734 389.36194L2162.2734 667.522L2203.7034 667.522L2203.7034 562.135L2261.5964 562.135C 2307.5364 562.135 2352.6985 528.81903 2352.6985 475.747C 2352.6985 422.677 2307.5364 389.36102 2261.5964 389.36102zM1719.9774 635.9799C 1691.3405 635.9799 1667.3644 611.9649 1667.3644 578.9799C 1667.3644 545.6489 1691.3403 521.26794 1719.9774 521.26794C 1748.2504 521.26794 1770.4385 545.64795 1770.4385 578.9799C 1770.4385 611.9649 1748.2505 635.9799 1719.9785 635.9799zM1767.5745 505.1369L1766.1425 505.1369C 1756.8405 494.02692 1738.9375 483.9899 1716.3944 483.9899C 1669.1525 483.9899 1625.8514 525.5699 1625.8514 578.9799C 1625.8514 632.0349 1669.1515 673.2589 1716.3944 673.2589C 1738.9374 673.2589 1756.8405 663.21893 1766.1425 651.7549L1766.1425 651.7549L1767.5745 651.7549L1767.5745 665.3749C 1767.5745 701.5859 1748.2505 720.9419 1717.1145 720.9419C 1691.7045 720.9419 1675.9565 702.6539 1669.5074 687.2429L1669.5074 687.2429L1633.3674 702.2979C 1643.7455 727.3899 1671.3044 758.2209 1717.1144 758.2209C 1765.7864 758.2209 1806.9443 729.53687 1806.9443 659.6389L1806.9443 659.6389L1806.9443 489.725L1767.5743 489.725zM1835.5725 667.5219L1877.0875 667.5219L1877.0875 389.3519L1835.5725 389.3519zM1938.2886 575.7559C 1937.2136 539.1889 1966.5615 520.5539 1987.6746 520.5539C 2004.1486 520.5539 2018.0996 528.7939 2022.7426 540.6339zM2067.1287 544.2129C 2059.2637 523.0569 2035.2716 483.9899 1986.2417 483.9899C 1937.5697 483.9899 1897.1317 522.3449 1897.1317 578.6239C 1897.1317 631.6789 1937.2137 673.2589 1990.8937 673.2589C 2034.2057 673.2589 2059.2637 646.7309 2069.6387 631.3199L2069.6387 631.3199L2037.4266 609.80786C 2026.6967 625.58386 2012.0137 635.97986 1990.8937 635.97986C 1969.7806 635.97986 1954.7527 626.29785 1945.0836 607.3049L1945.0836 607.3049L2071.4155 554.96484zM1060.6167 513.0269L1060.6167 553.1739L1156.5287 553.1739C 1153.6656 575.75586 1146.1497 592.2439 1134.6957 603.7159C 1120.7427 617.70087 1098.9106 633.1119 1060.6157 633.1119C 1001.56274 633.1119 955.39874 585.4369 955.39874 526.28986C 955.39874 467.14386 1001.56274 419.46286 1060.6167 419.46286C 1092.4707 419.46286 1115.7267 432.01187 1132.9077 448.14285L1132.9077 448.14285L1161.1807 419.82684C 1137.2047 396.87985 1105.3486 379.31586 1060.6167 379.31586C 979.7307 379.31586 911.73267 445.27585 911.73267 526.28986C 911.73267 607.3049 979.73065 673.25885 1060.6167 673.25885C 1104.2817 673.25885 1137.2047 658.9269 1162.9688 632.03485C 1189.4537 605.50684 1197.6887 568.2289 1197.6887 538.12085C 1197.6887 528.7938 1196.9757 520.1979 1195.5358 513.02686zM1306.7317 635.9799C 1278.0947 635.9799 1253.3987 612.31995 1253.3987 578.6239C 1253.3987 544.5689 1278.0947 521.2679 1306.7317 521.2679C 1335.3577 521.2679 1360.0537 544.5689 1360.0537 578.6239C 1360.0537 612.3209 1335.3577 635.9799 1306.7317 635.9799zM1306.7317 483.98993C 1254.4736 483.98993 1211.8837 523.77795 1211.8837 578.6239C 1211.8837 633.1119 1254.4736 673.2589 1306.7317 673.2589C 1358.9786 673.2589 1401.5687 633.11194 1401.5687 578.6239C 1401.5687 523.7779 1358.9788 483.9899 1306.7317 483.9899zM1513.6217 635.9799C 1484.9967 635.9799 1460.2977 612.31995 1460.2977 578.6239C 1460.2977 544.5689 1484.9967 521.2679 1513.6227 521.2679C 1542.2507 521.2679 1566.9467 544.5689 1566.9467 578.6239C 1566.9467 612.3209 1542.2506 635.9799 1513.6227 635.9799zM1513.6217 483.98993C 1461.3667 483.98993 1418.7856 523.77795 1418.7856 578.6239C 1418.7856 633.1119 1461.3667 673.2589 1513.6227 673.2589C 1565.8717 673.2589 1608.4626 633.11194 1608.4626 578.6239C 1608.4626 523.7779 1565.8717 483.9899 1513.6227 483.9899z" stroke="none" fill="#FFFFFF" fill-rule="nonzero" />
        <path d="M233.446 169.357C 225.991 176.094 221.541 187.331 221.541 202.247L221.541 202.247L221.541 198.875L221.541 691.08496L221.541 687.84296C 221.541 701.618 225.358 712.256 231.822 719.10693L231.822 719.10693L233.472 720.6889L233.472 720.6959C 238.704 725.4249 245.413 727.9359 253.102 727.9279C 260.615 727.9279 269.068 725.52893 277.989 720.4629L277.989 720.4629L600.44104 536.9549L711.20105 473.91388C 725.26807 465.90988 733.16504 455.5839 734.48505 445.0659L734.48505 445.0659L734.48505 445.0229C 733.16504 434.4809 725.26807 424.1629 711.202 416.1579L711.202 416.1579L600.432 353.1249L277.99 169.617C 269.05 164.542 260.591 162.134 253.05798 162.134C 245.37799 162.134 238.67798 164.63701 233.44798 169.35701L233.44798 169.35701L233.446 169.357z" stroke="none" fill="#00C1FF" fill-rule="nonzero" />
        <path transform="matrix(1 0 -0 -1 221.426 720.923)"  d="M12.047 0.234L10.396 1.816C 3.932 8.666 0.115 19.305 0.115 33.08L0.115 33.08L0.115 29.838001L0.115 521.926L0.115 518.676C 0.115 533.59204 4.5649996 544.82904 12.0199995 551.56604L12.0199995 551.56604L287.257 275.89105L12.047 0.234" stroke="none" fill="url(#1)" />
        <path transform="matrix(1 0 -0 -1 507.997 537.692)"  d="M92.444 0.738L0.686 92.66L92.436 184.567L203.20499 121.535C 217.27098 113.52901 225.16798 103.212006 226.48799 92.66901L226.48799 92.66901L226.48799 92.62701C 225.16798 82.10901 217.271 71.782005 203.20499 63.779007L203.20499 63.779007L92.445 0.739" stroke="none" fill="url(#247)" />
        <path transform="matrix(1 0 -0 -1 233.034 728.048)"  d="M20.068 0.12C 12.38 0.113 5.671 2.625 0.44 7.353L0.44 7.353L0.44 7.36L275.65 283.017L367.408 191.095L44.955 7.586C 36.034 2.519 27.581 0.12 20.068 0.12" stroke="none" fill="url(#495)" />
        <path transform="matrix(1 0 -0 -1 233.255 445.74)"  d="M275.428 0.707L0.19 276.382C 5.422 281.102 12.122 283.60498 19.801 283.60498C 27.334 283.60498 35.794 281.19797 44.733 276.12198L44.733 276.12198L367.177 92.614L275.427 0.707" stroke="none" fill="url(#743)" />
        <path transform="matrix(1 0 -0 -1 231.034 732.048)"  d="M22.077 0.861C 14.389 0.861 7.6709995 3.3730001 2.4389992 8.101L2.4389992 8.101L2.429999 8.092999L2.4389992 8.101L2.429999 8.092999L0.93 9.553C 0.885 9.597 0.843 9.648001 0.79 9.699L0.79 9.699L2.44 11.352C 7.672 6.624 14.379999 4.1120005 22.07 4.1210003C 29.582 4.1210003 38.035 6.519 46.956 11.586L46.956 11.586L369.408 195.094L371.474 193.02399L369.382 191.83398L46.955 8.336C 38.825 3.72 31.092 1.313 24.107 0.912" stroke="none" fill="url(#989)" />
        <path transform="matrix(1 0 -0 -1 221.426 723.148)"  d="M10.396 0.799C 3.932 7.649 0.115 18.279 0.115 32.063L0.115 32.063L0.115 35.305C 0.115 21.53 3.932 10.892 10.396 4.0410004L10.396 4.0410004L12.046 2.4590003L10.396 0.7990004" stroke="none" fill="url(#1238)" />
        <path transform="matrix(1 0 -0 -1 599.799 539.192)"  d="M2.708 0.169L0.642 2.239L111.402 65.279C 125.469 73.282 133.366 83.609 134.686 94.127C 134.686 90.267 133.826 86.408 132.11801 82.652C 128.67201 75.082 121.766014 67.929 111.403015 62.028L111.403015 62.028L2.708 0.168" stroke="none" fill="url(#1484)" />
        <path transform="matrix(1 0 -0 -1 599.799 445.74)"  d="M134.686 0.716C 133.366 11.259 125.469 21.576 111.403 29.581999L111.403 29.581999L0.633 92.614L2.699 94.684L2.708 94.684L111.403 32.823997C 126.911 23.992996 134.677 12.355997 134.686 0.7159958" stroke="none" fill="url(#1735)" />
        <path transform="matrix(1 0 -0 -1 221.426 202.481)"  d="M0.115 0.234L0.115 3.634C 0.115 4.86 0.148 6.059 0.211 7.223L0.211 7.223L0.211 7.276C 0.211 7.292 0.211 7.309 0.217 7.327L0.217 7.327L0.217 7.458C 0.88600004 19.323 4.565 28.578001 10.396 34.758L10.396 34.758L12.0199995 33.125C 4.565 26.387 0.115 15.15 0.115 0.234" stroke="none" fill="url(#1981)" />
        <path transform="matrix(1 0 -0 -1 231.034 353.786)"  d="M369.398 0.66L46.955 184.17C 38.016003 189.245 29.557001 191.652 22.024002 191.652C 14.344002 191.652 7.644002 189.14899 2.413002 184.42899L2.413002 184.42899L0.78900206 186.06299L2.413002 184.42899L0.78900206 186.06299C 0.8060021 186.081 0.8330021 186.09898 0.85000205 186.11598C 6.040002 190.79999 12.669003 193.30298 20.280003 193.34798L20.280003 193.34798L20.444002 193.34798C 27.977001 193.34798 36.436 190.93997 45.375 185.86298L45.375 185.86298L371.473 2.737L371.464 2.73L369.39798 0.6600001" stroke="none" fill="url(#2228)" />
	</g>
</g>
</svg>